<svg width="24" height="24" viewBox="0 0 24 24" fill="none" xmlns="http://www.w3.org/2000/svg">
  <g clip-path="url(#clip0_8_2)">
    <path
      d="M12.94 1.895C11.1316 1.895 10.0254 3.58865 10.0254 3.58865C10.0214 3.59441 10.0174 3.60022 10.0135 3.60609C9.36315 3.14604 8.54745 2.835 7.53499 2.835C7.28074 2.8314 7.04425 2.96498 6.91608 3.18459C6.7879 3.4042 6.7879 3.6758 6.91608 3.89541C7.04425 4.11502 7.28074 4.2486 7.53499 4.245C8.78818 4.245 9.40367 4.69843 9.85286 5.39154C10.1844 5.90309 10.3826 6.57938 10.4881 7.26787C10.4763 7.26283 10.4699 7.26115 10.4578 7.25594C9.81202 6.97723 8.92807 6.595 7.18249 6.595C5.88106 6.595 4.59744 7.185 3.65932 8.2143C2.78512 9.17357 2.36259 10.3502 2.36682 11.81L2.36774 12.2442C2.43777 17.4222 5.54774 21.635 9.30116 21.635H9.42508C9.72635 21.635 10.0133 21.5747 10.2779 21.4835C10.0495 21.0784 9.91303 20.6157 9.89141 20.1231C9.73819 20.1837 9.57924 20.225 9.42508 20.225H9.30116C6.31478 20.225 3.83696 16.6365 3.77774 12.235L3.77682 11.8054C3.77353 10.6995 4.06719 9.86046 4.70122 9.16439C5.36251 8.43871 6.29043 8.005 7.18249 8.005C8.63667 8.005 9.30703 8.29459 9.89876 8.55027C10.3114 8.7284 10.738 8.91287 11.295 8.91287C11.8519 8.91287 12.2786 8.7284 12.6912 8.55027C13.2829 8.29459 13.9533 8.005 15.4075 8.005C16.2704 8.005 17.0436 8.38335 17.6363 8.945H19.4392C18.6021 7.6196 17.1596 6.595 15.4075 6.595C13.6619 6.595 12.7775 6.97723 12.1322 7.25594C12.045 7.29354 11.9862 7.31151 11.9128 7.34039C11.8332 6.81049 11.6924 6.26128 11.5006 5.72018C11.9145 5.9451 12.3788 6.125 12.94 6.125C14.7483 6.125 15.8545 4.43135 15.8545 4.43135C16.0409 4.18135 16.0409 3.83865 15.8545 3.58865C15.8545 3.58865 14.7483 1.895 12.94 1.895ZM12.94 3.305C13.4325 3.305 13.9169 3.67978 14.2784 4.01C13.9169 4.34022 13.4325 4.715 12.94 4.715C12.4475 4.715 11.9631 4.34022 11.6016 4.01C11.9631 3.67978 12.4475 3.305 12.94 3.305ZM12.94 9.885C11.7803 9.885 10.825 10.8403 10.825 12V19.99C10.825 21.1497 11.7803 22.105 12.94 22.105H19.52C20.6797 22.105 21.635 21.1497 21.635 19.99V12C21.635 10.8403 20.6797 9.885 19.52 9.885H12.94ZM12.94 11.295H19.52C19.9178 11.295 20.225 11.6021 20.225 12V19.99C20.225 20.3879 19.9178 20.695 19.52 20.695H12.94C12.5421 20.695 12.235 20.3879 12.235 19.99V12C12.235 11.6021 12.5421 11.295 12.94 11.295ZM14.115 12.705C13.8555 12.705 13.645 12.9156 13.645 13.175V14.115C13.645 14.3744 13.8555 14.585 14.115 14.585H18.345C18.6044 14.585 18.815 14.3744 18.815 14.115V13.175C18.815 12.9156 18.6044 12.705 18.345 12.705H14.115ZM13.88 15.525C13.4906 15.525 13.175 15.8406 13.175 16.23C13.175 16.6194 13.4906 16.935 13.88 16.935C14.2693 16.935 14.585 16.6194 14.585 16.23C14.585 15.8406 14.2693 15.525 13.88 15.525ZM16.23 15.525C15.8406 15.525 15.525 15.8406 15.525 16.23C15.525 16.6194 15.8406 16.935 16.23 16.935C16.6193 16.935 16.935 16.6194 16.935 16.23C16.935 15.8406 16.6193 15.525 16.23 15.525ZM18.58 15.525C18.1908 15.525 17.875 15.8408 17.875 16.23V18.58C17.875 18.9692 18.1908 19.285 18.58 19.285C18.9691 19.285 19.285 18.9692 19.285 18.58V16.23C19.285 15.8408 18.9691 15.525 18.58 15.525ZM13.88 17.875C13.4906 17.875 13.175 18.1906 13.175 18.58C13.175 18.9694 13.4906 19.285 13.88 19.285C14.2693 19.285 14.585 18.9694 14.585 18.58C14.585 18.1906 14.2693 17.875 13.88 17.875ZM16.23 17.875C15.8406 17.875 15.525 18.1906 15.525 18.58C15.525 18.9694 15.8406 19.285 16.23 19.285C16.6193 19.285 16.935 18.9694 16.935 18.58C16.935 18.1906 16.6193 17.875 16.23 17.875Z"
      fill="#0D9488" />
  </g>
  <defs>
    <clipPath id="clip0_8_2">
      <rect width="24" height="24" fill="white" />
    </clipPath>
  </defs>
</svg>